<?xml version="1.0" encoding="iso-8859-1"?>
<!-- Generator: Adobe Illustrator 19.0.0, SVG Export Plug-In . SVG Version: 6.00 Build 0)  -->
<svg version="1.1" id="Layer_1" xmlns="http://www.w3.org/2000/svg" xmlns:xlink="http://www.w3.org/1999/xlink" x="0px" y="0px"
	 viewBox="0 0 512 512" style="enable-background:new 0 0 512 512;" xml:space="preserve">
<polygon style="fill:#E21B1B;" points="462,110.056 256,0 50,110.056 50,401.944 256,512 462,401.944 "/>
<g>
	<path style="fill:#FFFFFF;" d="M128.024,316.6l30.712-59.128c2.824-5.376,5.12-10.072,6.88-14.096
		c1.768-4.016,3.152-7.528,4.16-10.544c1-3.016,1.696-5.632,2.08-7.856c0.376-2.224,0.568-4.232,0.568-6.032
		c0-2.824-0.256-5.192-0.776-7.128c-0.52-1.92-1.28-3.48-2.28-4.64c-1.008-1.168-2.256-2-3.752-2.488
		c-1.496-0.496-3.216-0.736-5.168-0.736c-4.784,0-8.24,1.968-10.384,5.904c-2.152,3.936-3.216,9.6-3.216,16.984v7.896H130.56
		c-0.6-3.04-1.12-5.824-1.544-8.352c-0.44-2.52-0.656-5.272-0.656-8.264c0-3.528,0.608-7.048,1.832-10.544
		c1.216-3.504,3.136-6.664,5.744-9.496c2.6-2.824,5.928-5.104,9.976-6.832c4.048-1.744,8.888-2.608,14.536-2.608
		c6.08,0,11.28,0.704,15.6,2.12c4.312,1.416,7.856,3.48,10.624,6.184c2.776,2.72,4.8,6.032,6.072,9.936
		c1.272,3.912,1.912,8.336,1.912,13.28c0,2.824-0.256,5.608-0.776,8.352s-1.376,5.672-2.568,8.8c-1.192,3.12-2.744,6.52-4.64,10.216
		s-4.232,7.928-7,12.704l-27.456,52.128h40.648v16.616h-64.84L128.024,316.6L128.024,316.6z"/>
	<path style="fill:#FFFFFF;" d="M209.072,229.616c0-6.08,0.552-11.336,1.664-15.76c1.12-4.432,2.584-8.152,4.4-11.168
		c1.824-3.008,3.928-5.44,6.312-7.288c2.392-1.84,4.848-3.264,7.376-4.272s5.048-1.672,7.576-1.992
		c2.52-0.328,4.84-0.496,6.96-0.496c2.008,0,4.248,0.152,6.72,0.448c2.472,0.304,4.968,0.928,7.496,1.872
		c2.528,0.952,4.968,2.336,7.336,4.16c2.36,1.824,4.456,4.248,6.272,7.288s3.28,6.792,4.4,11.24
		c1.112,4.456,1.664,9.776,1.664,15.96v58.808c0,6.08-0.552,11.336-1.664,15.76c-1.12,4.432-2.592,8.184-4.448,11.28
		c-1.84,3.096-3.96,5.608-6.352,7.536c-2.392,1.92-4.832,3.424-7.328,4.48c-2.496,1.064-4.984,1.784-7.456,2.16
		c-2.48,0.384-4.688,0.568-6.64,0.568c-2.168,0-4.528-0.184-7.088-0.568c-2.552-0.376-5.104-1.096-7.656-2.16
		c-2.552-1.056-5.008-2.536-7.376-4.44c-2.36-1.896-4.44-4.4-6.224-7.496c-1.8-3.096-3.232-6.864-4.32-11.328
		c-1.088-4.448-1.624-9.72-1.624-15.8L209.072,229.616L209.072,229.616z M230.664,297.296c0,5.76,1.04,9.936,3.136,12.544
		s5.28,3.904,9.568,3.904c4.176,0,7.304-1.296,9.368-3.904s3.096-6.792,3.096-12.544V221.96c0-6.08-1.032-10.504-3.096-13.272
		c-2.064-2.776-5.184-4.16-9.368-4.16c-4.288,0-7.48,1.384-9.568,4.16c-2.096,2.768-3.136,7.192-3.136,13.272V297.296z"/>
	<path style="fill:#FFFFFF;" d="M315.584,249.808c-2.368,0-4.736-0.328-7.12-0.992c-2.392-0.664-4.536-1.96-6.472-3.88
		c-1.928-1.928-3.496-4.664-4.696-8.208c-1.2-3.536-1.808-8.192-1.808-13.952v-6.656c0-3.768,0.288-7.032,0.872-9.792
		c0.576-2.76,1.376-5.112,2.392-7.056c1.016-1.952,2.184-3.52,3.512-4.728s2.736-2.136,4.224-2.8s3.016-1.12,4.568-1.368
		s3.08-0.376,4.568-0.376c1.408,0,2.872,0.12,4.416,0.344c1.528,0.224,3.032,0.672,4.504,1.336s2.864,1.584,4.192,2.768
		c1.32,1.176,2.488,2.744,3.48,4.696c1,1.944,1.784,4.312,2.368,7.088c0.576,2.776,0.864,6.072,0.864,9.88v6.656
		c0,5.68-0.64,10.288-1.928,13.832c-1.28,3.544-2.904,6.288-4.872,8.24c-1.968,1.944-4.128,3.256-6.472,3.944
		S317.656,249.808,315.584,249.808z M315.704,239.928c2.608,0,4.432-1.128,5.472-3.392c1.032-2.256,1.552-5.768,1.552-10.536
		v-12.056c0-4.816-0.52-8.352-1.552-10.632c-1.04-2.28-2.856-3.424-5.472-3.424c-2.736,0-4.656,1.144-5.752,3.424
		c-1.104,2.28-1.648,5.824-1.648,10.632V226c0,4.776,0.544,8.28,1.648,10.536C311.048,238.8,312.976,239.928,315.704,239.928z
		 M353.256,191.304h11.248l-28.528,107.36h-11.312L353.256,191.304z M353.376,265.904c0-5.664,0.632-10.224,1.896-13.64
		c1.256-3.424,2.872-6.056,4.84-7.896s4.144-3.072,6.496-3.672c2.36-0.592,4.64-0.896,6.832-0.896c1.416,0,2.88,0.12,4.416,0.344
		c1.536,0.224,3.04,0.672,4.504,1.336s2.872,1.584,4.192,2.768c1.328,1.176,2.496,2.752,3.488,4.696s1.784,4.312,2.36,7.088
		c0.584,2.784,0.872,6.072,0.872,9.88v6.656c0,3.816-0.304,7.128-0.904,9.944s-1.408,5.216-2.424,7.208s-2.184,3.624-3.512,4.912
		c-1.32,1.28-2.72,2.296-4.192,3.048c-1.472,0.744-2.968,1.248-4.504,1.52c-1.528,0.264-2.984,0.4-4.352,0.4
		c-1.568,0-3.16-0.136-4.752-0.4c-1.6-0.272-3.136-0.76-4.6-1.464c-1.48-0.712-2.856-1.704-4.168-2.984
		c-1.312-1.288-2.44-2.92-3.392-4.912s-1.712-4.408-2.272-7.24c-0.552-2.832-0.832-6.184-0.832-10.04v-6.656H353.376z
		 M366.12,275.792c0,4.768,0.552,8.272,1.648,10.528c1.104,2.264,3.016,3.392,5.752,3.392c2.616,0,4.44-1.128,5.48-3.392
		c1.032-2.256,1.544-5.768,1.544-10.528v-12.056c0-4.816-0.512-8.352-1.544-10.632c-1.04-2.28-2.856-3.424-5.48-3.424
		c-2.736,0-4.648,1.144-5.752,3.424c-1.096,2.28-1.648,5.824-1.648,10.632V275.792z"/>
</g>
<g>
</g>
<g>
</g>
<g>
</g>
<g>
</g>
<g>
</g>
<g>
</g>
<g>
</g>
<g>
</g>
<g>
</g>
<g>
</g>
<g>
</g>
<g>
</g>
<g>
</g>
<g>
</g>
<g>
</g>
</svg>
